<?xml version="1.0" standalone="no"?>
<!DOCTYPE svg PUBLIC "-//W3C//DTD SVG 20010904//EN"
 "http://www.w3.org/TR/2001/REC-SVG-20010904/DTD/svg10.dtd">
<svg version="1.0" xmlns="http://www.w3.org/2000/svg"
 width="1536.000000pt" height="1536.000000pt" viewBox="0 0 1536.000000 1536.000000"
 preserveAspectRatio="xMidYMid meet">

<g transform="translate(0.000000,1536.000000) scale(0.100000,-0.100000)"
fill="#000000" stroke="none">
<path d="M8410 12353 c0 -4 44 -74 99 -157 54 -83 128 -196 163 -251 81 -126
148 -200 207 -229 25 -13 105 -42 178 -64 184 -57 239 -80 473 -198 315 -159
476 -262 706 -450 537 -440 924 -954 1174 -1559 216 -524 310 -976 309 -1490
0 -208 -18 -528 -31 -540 -4 -5 -125 122 -309 325 -102 113 -390 447 -560 650
-57 69 -139 159 -181 202 -86 86 -120 101 -223 102 -70 0 -106 -16 -173 -77
-51 -48 -222 -258 -267 -329 -17 -27 -34 -47 -40 -45 -5 2 -65 77 -133 168
-67 90 -158 209 -201 264 -43 55 -201 262 -352 460 -150 198 -326 430 -391
515 -65 85 -318 421 -563 745 -376 499 -648 856 -734 965 -25 32 -16 42 -183
-205 -74 -110 -206 -304 -294 -431 -87 -127 -249 -364 -358 -525 -427 -630
-464 -679 -511 -679 -17 0 -36 5 -42 11 -20 20 -240 -103 -418 -235 -106 -79
-180 -121 -290 -166 -124 -50 -165 -79 -219 -150 -48 -63 -276 -418 -421 -655
-124 -203 -172 -271 -254 -358 -58 -62 -80 -77 -186 -127 -66 -32 -235 -106
-375 -165 -140 -59 -260 -111 -266 -116 -13 -11 -12 -20 43 -324 53 -299 68
-364 134 -582 28 -92 67 -222 85 -288 19 -66 39 -124 44 -129 6 -6 21 -2 39
12 17 12 110 77 208 143 398 271 499 359 758 653 33 38 69 80 80 94 64 82 203
237 271 303 44 41 117 117 163 167 46 51 90 92 98 92 8 0 11 5 7 11 -6 10 42
69 57 69 4 0 15 -7 23 -16 9 -8 16 -11 16 -5 0 5 -4 13 -10 16 -15 9 -12 25 5
25 13 0 21 14 13 23 -2 1 8 17 20 35 18 24 29 31 43 27 11 -4 19 -2 19 5 0 6
-4 8 -10 5 -20 -12 -10 12 13 31 12 10 16 12 10 4 -7 -8 -13 -19 -13 -25 1 -5
9 0 20 13 18 22 19 22 29 3 9 -16 8 -20 -11 -23 -12 -2 -23 -9 -26 -16 -4 -12
0 -12 19 -1 13 7 26 13 29 13 3 1 4 9 3 19 -2 10 2 15 7 12 6 -3 10 -2 10 4 0
5 -11 13 -25 18 -24 8 -24 8 33 74 100 115 122 143 122 151 0 21 24 0 97 -84
44 -51 176 -192 293 -313 238 -247 339 -373 575 -715 22 -32 44 -56 49 -53 5
4 6 2 3 -3 -3 -6 15 -37 40 -70 25 -32 59 -78 76 -101 28 -40 32 -42 52 -29
19 12 22 11 31 -9 9 -19 9 -22 -2 -18 -8 3 -14 0 -14 -7 0 -6 -5 -8 -12 -3 -7
4 2 -13 21 -37 49 -63 58 -71 33 -27 -12 20 -19 37 -16 37 9 0 34 -28 50 -57
14 -25 15 -26 11 -4 -4 14 0 30 9 38 12 13 14 12 14 -2 0 -20 42 -37 52 -21
11 16 10 23 -8 40 -14 15 -13 16 10 16 23 0 24 -2 16 -30 -5 -18 -5 -30 1 -30
5 0 9 7 9 16 0 9 5 12 12 8 8 -5 9 -2 5 9 -3 10 -2 17 3 17 6 0 10 -5 10 -11
0 -5 5 -7 10 -4 6 3 10 -1 10 -9 0 -8 5 -18 11 -22 15 -9 0 38 -15 48 -8 6 -8
8 1 8 7 0 16 -7 21 -16 6 -10 9 1 10 36 1 40 -2 51 -13 46 -9 -3 -12 0 -8 10
3 9 12 12 26 8 16 -5 19 -3 14 10 -6 14 -3 16 15 10 21 -6 21 -5 9 10 -8 10
-10 20 -5 26 13 13 43 17 41 5 -1 -5 -8 -9 -14 -9 -8 1 -12 -8 -11 -23 3 -30
23 -49 34 -32 4 8 3 9 -4 5 -7 -4 -12 -1 -12 8 0 25 27 7 33 -20 3 -19 1 -24
-11 -19 -12 4 -13 3 -3 -9 7 -8 10 -20 6 -26 -3 -5 -2 -10 4 -10 5 0 12 9 16
19 3 11 14 22 23 25 23 8 22 60 -1 64 -10 2 -17 12 -17 23 0 11 -4 17 -10 14
-13 -8 -13 5 0 25 8 13 10 12 10 -2 0 -10 4 -18 10 -18 5 0 7 -7 4 -15 -4 -9
0 -15 9 -15 16 0 30 -26 22 -41 -4 -5 2 -6 11 -2 13 5 15 3 9 -8 -15 -24 -12
-49 7 -55 21 -6 24 -20 6 -27 -10 -3 -10 -7 -1 -17 20 -21 26 26 7 55 -9 14
-15 28 -12 30 11 11 56 -75 51 -97 -4 -21 -3 -21 7 -5 11 17 19 12 88 -55 133
-129 384 -296 424 -284 44 14 69 16 63 5 -5 -8 -1 -7 15 1 18 10 24 9 31 -1 7
-12 9 -12 9 0 0 8 7 11 20 8 10 -3 25 1 31 9 9 11 15 11 25 3 8 -6 25 -9 38
-5 16 4 26 1 30 -9 3 -8 12 -12 21 -9 21 8 19 25 -2 18 -15 -5 -16 -4 -3 5 11
8 18 7 25 -2 6 -6 22 -11 36 -9 22 3 43 28 120 145 52 78 118 167 149 198 61
62 94 78 480 234 301 122 458 193 709 321 124 63 228 114 232 114 4 0 10 -8
14 -19 3 -11 -10 -46 -36 -92 -48 -84 -265 -534 -284 -590 -11 -31 -11 -40 0
-55 11 -16 16 -17 41 -5 22 10 25 14 13 22 -12 7 -11 9 4 9 9 0 20 0 23 -1 3
0 16 11 30 26 13 15 29 23 36 19 7 -5 8 -3 3 6 -6 9 -2 10 15 5 15 -5 20 -4
16 4 -4 6 -14 11 -22 11 -18 0 -18 11 2 36 12 14 14 15 11 3 -8 -26 11 -39 39
-27 16 7 28 8 36 1 23 -18 46 -22 51 -10 3 8 -4 12 -17 12 -29 0 -32 19 -4 27
13 3 17 6 11 7 -26 2 -12 16 17 17 17 1 27 -3 23 -9 -4 -6 3 -8 17 -4 16 4 28
0 37 -11 12 -16 12 -15 6 3 -3 11 -11 23 -17 27 -6 5 -1 8 12 9 12 1 28 2 35
3 6 1 15 -3 19 -9 5 -6 8 -6 8 2 0 7 9 27 20 45 l19 32 -5 -39 c-4 -36 -3 -38
7 -17 8 14 18 21 27 17 9 -3 12 0 9 9 -3 8 2 16 14 19 10 3 16 1 13 -4 -3 -6
5 -7 21 -3 19 5 30 1 41 -12 14 -18 15 -18 11 8 -4 28 8 39 41 37 11 0 12 -2
5 -6 -7 -2 -13 -9 -13 -14 0 -10 52 11 62 26 5 6 8 2 8 -9 0 -15 3 -16 14 -7
18 15 66 4 66 -16 0 -12 2 -12 15 1 22 22 19 46 -5 41 -17 -3 -19 -1 -10 15 6
10 15 22 22 26 7 5 8 3 4 -5 -5 -7 0 -21 9 -31 10 -11 15 -26 12 -35 -8 -18 2
-45 15 -45 6 0 6 6 -1 14 -9 11 -9 15 1 19 10 3 11 8 1 26 -15 24 -18 65 -4
42 6 -9 18 -11 40 -6 22 5 31 3 31 -6 0 -7 2 -10 5 -7 13 13 -8 35 -28 30 -19
-5 -20 -3 -10 10 13 15 73 23 72 10 -3 -21 3 -23 20 -8 18 16 20 16 47 -8 27
-24 28 -25 8 -26 -13 0 -24 -8 -27 -21 -4 -14 -2 -18 6 -11 7 5 20 8 29 7 10
-2 16 0 15 3 -1 4 1 8 6 10 19 6 27 0 27 -23 0 -14 5 -25 10 -25 6 0 10 8 10
17 0 13 3 14 12 5 7 -7 20 -12 31 -12 10 0 16 -3 14 -7 -3 -5 24 -9 59 -10 36
-1 89 -7 118 -13 48 -10 119 -17 509 -52 l138 -12 26 28 c24 26 25 31 14 60
-7 17 -18 54 -25 82 -7 27 -16 55 -19 61 -4 6 -2 13 4 15 11 4 16 26 43 188 8
47 19 112 25 145 34 194 47 687 24 920 -50 511 -139 878 -318 1315 -172 421
-407 808 -721 1191 -132 160 -460 483 -629 618 -128 103 -459 327 -605 411
-204 116 -588 284 -810 355 -47 14 -200 55 -340 91 -140 35 -263 68 -272 74
-10 6 -18 7 -18 3z m-645 -1776 c107 -161 217 -316 390 -547 72 -96 208 -281
302 -410 94 -129 240 -328 325 -442 84 -113 221 -298 303 -409 223 -302 361
-485 427 -566 33 -40 57 -77 54 -82 -3 -5 -18 -12 -33 -15 -16 -4 -82 -33
-148 -66 -688 -336 -868 -428 -1002 -513 -71 -45 -78 -35 -29 41 141 218 456
820 456 872 0 6 -43 56 -96 113 -53 56 -162 179 -243 272 -80 94 -294 320
-476 503 l-330 333 3 487 c1 271 -1 503 -7 524 -9 37 -5 52 9 43 5 -3 47 -65
95 -138z m-198 -3553 c-3 -3 -12 -4 -19 -1 -8 3 -5 6 6 6 11 1 17 -2 13 -5z
m-42 -64 c-3 -5 -11 -10 -16 -10 -6 0 -7 5 -4 10 3 6 11 10 16 10 6 0 7 -4 4
-10z m98 -4 c4 -10 1 -13 -8 -9 -8 3 -12 9 -9 14 7 12 11 11 17 -5z m3141 -10
c-3 -9 -10 -13 -15 -10 -5 3 -3 11 4 19 15 16 19 13 11 -9z m-3604 -28 l23
-33 -26 24 c-15 14 -27 28 -27 33 0 14 5 9 30 -24z m154 -17 c-2 -3 -12 3 -22
13 -16 17 -16 18 5 5 12 -7 20 -15 17 -18z m3261 19 c3 -5 1 -10 -4 -10 -6 0
-11 5 -11 10 0 6 2 10 4 10 3 0 8 -4 11 -10z m-3001 -12 c-2 -4 -18 -6 -35 -6
-17 1 -26 4 -21 7 14 8 61 8 56 -1z m-294 -14 c0 -8 5 -12 10 -9 6 3 10 1 10
-4 0 -6 -7 -11 -15 -11 -8 0 -15 2 -15 4 0 2 -3 11 -6 20 -3 9 -1 16 5 16 6 0
11 -7 11 -16z m-51 -26 c16 2 32 -1 36 -7 4 -8 -4 -11 -27 -8 -42 4 -60 15
-51 30 5 9 8 7 11 -4 2 -11 11 -14 31 -11z m301 18 c0 -3 -4 -8 -10 -11 -5 -3
-10 -1 -10 4 0 6 5 11 10 11 6 0 10 -2 10 -4z m-183 -31 c-7 -5 -12 -17 -10
-25 4 -12 3 -13 -5 -1 -8 11 -11 9 -17 -8 -3 -12 -11 -19 -16 -16 -5 4 -2 13
6 21 8 9 15 22 15 29 0 8 9 13 21 12 16 -1 18 -3 6 -12z m80 0 c0 -8 -4 -12
-9 -9 -5 3 -6 10 -3 15 9 13 12 11 12 -6z m83 5 c8 -5 11 -10 5 -10 -5 0 -17
5 -25 10 -8 5 -10 10 -5 10 6 0 17 -5 25 -10z m148 -15 c-3 -3 -9 2 -12 12 -6
14 -5 15 5 6 7 -7 10 -15 7 -18z m2747 15 c-3 -5 -12 -10 -18 -10 -7 0 -6 4 3
10 19 12 23 12 15 0z m-3105 -14 c0 -2 -7 -7 -16 -10 -8 -3 -12 -2 -9 4 6 10
25 14 25 6z m-43 -19 c2 -2 -2 -9 -10 -15 -10 -8 -16 -6 -25 8 -10 16 -9 18
10 15 11 -3 22 -6 25 -8z m413 -7 c0 -5 -4 -10 -10 -10 -5 0 -10 5 -10 10 0 6
5 10 10 10 6 0 10 -4 10 -10z m2620 -14 c0 -3 -4 -8 -10 -11 -5 -3 -10 -1 -10
4 0 6 5 11 10 11 6 0 10 -2 10 -4z m-2948 -24 c-7 -2 -12 -13 -12 -25 0 -13
-3 -18 -10 -11 -15 15 -1 54 18 46 10 -4 12 -7 4 -10z m178 3 c0 -9 -6 -12
-16 -8 -13 5 -13 7 -2 14 17 11 18 11 18 -6z m2718 -6 c-20 -13 -28 -11 -22 5
3 8 12 12 21 9 12 -5 12 -7 1 -14z m-2850 -22 c14 4 14 3 2 -5 -16 -12 -30 -7
-29 11 0 9 2 9 5 0 3 -7 13 -9 22 -6z m-88 -1 c0 -11 -19 -15 -25 -6 -3 5 1
10 9 10 9 0 16 -2 16 -4z m55 -15 c3 -5 1 -12 -5 -16 -5 -3 -10 1 -10 9 0 18
6 21 15 7z m66 -28 c13 -16 12 -17 -3 -4 -10 7 -18 15 -18 17 0 8 8 3 21 -13z
m2624 -53 c3 -5 1 -10 -4 -10 -6 0 -11 5 -11 10 0 6 2 10 4 10 3 0 8 -4 11
-10z"/>
<path d="M5315 11345 c-233 -61 -483 -184 -670 -331 -119 -93 -410 -384 -505
-504 -76 -97 -252 -355 -314 -460 -96 -163 -232 -471 -347 -785 -44 -120 -91
-291 -115 -420 -8 -44 -19 -93 -24 -110 -5 -16 -13 -61 -19 -100 -5 -38 -15
-103 -22 -143 -11 -63 -11 -74 1 -82 13 -8 12 -13 -3 -39 l-18 -30 33 -9 c18
-5 35 -7 38 -5 8 7 -23 22 -33 16 -5 -3 -7 5 -5 18 2 16 11 25 26 27 19 3 21
6 11 18 -9 11 -8 14 5 14 9 0 16 -8 16 -17 0 -15 2 -14 16 3 8 10 13 14 10 8
-3 -7 1 -15 9 -18 12 -4 13 -2 6 12 -5 10 -9 27 -7 37 3 20 35 47 47 40 4 -3
9 -1 11 4 1 4 14 12 27 16 16 5 21 4 17 -4 -11 -18 2 -13 24 9 12 12 18 26 14
32 -4 6 -3 8 4 4 6 -3 18 2 28 11 16 17 17 16 12 -12 -5 -26 -5 -27 7 -12 7 9
19 15 27 12 9 -4 18 1 22 11 5 14 4 15 -9 4 -12 -10 -15 -10 -14 1 1 23 17 56
19 39 1 -10 4 -9 9 5 8 19 8 19 20 -4 8 -14 9 -26 4 -30 -13 -8 -9 -49 5 -63
17 -17 27 -1 12 17 -9 11 -9 15 -1 15 6 0 16 -10 21 -22 6 -16 9 -18 9 -7 1 9
-6 22 -14 29 -12 10 -12 17 -3 34 6 11 10 23 9 24 -2 2 0 6 3 9 3 4 6 -7 7
-23 0 -16 15 39 33 121 40 182 95 377 142 499 20 50 52 134 72 186 39 103 181
390 263 535 89 156 298 433 471 625 97 107 235 228 430 377 330 252 362 276
470 354 l106 77 -45 6 c-102 14 -256 6 -348 -19z m-1590 -2585 c3 -5 1 -10 -4
-10 -6 0 -11 5 -11 10 0 6 2 10 4 10 3 0 8 -4 11 -10z m-75 -50 c0 -5 -4 -10
-10 -10 -5 0 -10 5 -10 10 0 6 5 10 10 10 6 0 10 -4 10 -10z m30 -5 c0 -8 -4
-15 -10 -15 -5 0 -10 7 -10 15 0 8 5 15 10 15 6 0 10 -7 10 -15z m40 -20 c5 3
12 0 16 -6 5 -8 -1 -10 -20 -7 -26 5 -37 -6 -13 -15 9 -4 9 -6 0 -6 -6 -1 -15
4 -18 9 -4 7 -13 7 -26 0 -13 -8 -19 -7 -19 0 0 6 8 13 18 16 9 3 24 9 32 13
8 5 17 5 18 0 2 -5 8 -7 12 -4z m-80 1 c0 -3 -4 -8 -10 -11 -5 -3 -10 -1 -10
4 0 6 5 11 10 11 6 0 10 -2 10 -4z m90 -47 c0 -11 -4 -18 -10 -14 -5 3 -7 12
-3 20 7 21 13 19 13 -6z m-40 -16 c0 -12 -3 -14 -8 -7 -4 7 -18 14 -32 17 -21
4 -20 4 8 6 24 1 32 -3 32 -16z m-70 3 c0 -3 -4 -8 -10 -11 -5 -3 -10 -1 -10
4 0 6 5 11 10 11 6 0 10 -2 10 -4z m-30 -26 c0 -5 -4 -10 -10 -10 -5 0 -10 5
-10 10 0 6 5 10 10 10 6 0 10 -4 10 -10z m-60 -70 c0 -5 -4 -10 -10 -10 -5 0
-10 5 -10 10 0 6 5 10 10 10 6 0 10 -4 10 -10z"/>
<path d="M8983 10506 c-103 -24 -103 -28 -1 -65 51 -18 121 -48 155 -66 69
-38 197 -130 259 -187 63 -58 124 -80 231 -86 86 -4 95 -3 138 22 25 15 78 57
118 92 102 92 265 201 347 231 38 14 67 29 65 33 -8 13 -167 34 -250 33 -96
-1 -154 -22 -258 -92 -92 -62 -150 -91 -181 -91 -13 0 -46 18 -74 39 -67 53
-144 95 -221 121 -84 28 -242 35 -328 16z"/>
<path d="M5392 10105 c-67 -15 -127 -51 -191 -116 -31 -31 -50 -40 -131 -58
-97 -23 -150 -44 -134 -54 40 -24 278 -36 331 -16 15 5 53 30 85 55 76 59 112
60 188 3 92 -69 125 -82 194 -76 64 5 207 54 213 73 2 7 -37 15 -109 23 -123
13 -135 18 -214 92 -49 47 -123 89 -154 88 -8 0 -44 -7 -78 -14z"/>
<path d="M3698 8450 c-3 -16 -1 -30 4 -30 4 0 8 14 8 30 0 17 -2 30 -4 30 -2
0 -6 -13 -8 -30z"/>
<path d="M3446 8435 c-3 -8 -1 -15 4 -15 6 0 10 7 10 15 0 8 -2 15 -4 15 -2 0
-6 -7 -10 -15z"/>
<path d="M3335 8370 c-3 -5 1 -10 9 -10 9 0 16 5 16 10 0 6 -4 10 -9 10 -6 0
-13 -4 -16 -10z"/>
<path d="M3390 8376 c0 -2 8 -10 18 -17 15 -13 16 -12 3 4 -13 16 -21 21 -21
13z"/>
<path d="M3430 8370 c0 -5 5 -10 11 -10 5 0 7 5 4 10 -3 6 -8 10 -11 10 -2 0
-4 -4 -4 -10z"/>
<path d="M3691 8364 c0 -11 3 -14 6 -6 3 7 2 16 -1 19 -3 4 -6 -2 -5 -13z"/>
<path d="M3360 8331 c0 -12 5 -21 10 -21 6 0 10 6 10 14 0 8 -4 18 -10 21 -5
3 -10 -3 -10 -14z"/>
<path d="M3670 8340 c0 -5 5 -10 11 -10 5 0 7 5 4 10 -3 6 -8 10 -11 10 -2 0
-4 -4 -4 -10z"/>
<path d="M3681 8277 c-1 -12 -5 -16 -13 -11 -8 5 -7 0 2 -11 14 -16 15 -17 18
-1 2 9 1 22 -1 29 -3 7 -6 4 -6 -6z"/>
<path d="M3671 8054 c0 -11 3 -14 6 -6 3 7 2 16 -1 19 -3 4 -6 -2 -5 -13z"/>
<path d="M5947 7928 c-4 -13 -1 -26 6 -30 9 -6 9 -8 0 -8 -7 0 -13 -10 -13
-22 0 -17 -3 -19 -9 -9 -7 11 -13 9 -30 -8 -16 -16 -21 -17 -21 -6 0 8 -5 15
-11 15 -6 0 -8 -9 -4 -21 4 -13 0 -27 -11 -40 -24 -27 -10 -24 17 4 16 16 20
18 16 5 -3 -10 -1 -20 5 -24 7 -4 8 -3 4 4 -5 8 1 12 16 13 16 0 19 2 8 7 -28
13 -20 29 11 26 40 -5 49 -11 42 -29 -3 -8 -1 -15 4 -15 13 0 13 89 0 97 -6 4
-3 9 9 14 17 7 17 8 -3 8 -14 1 -23 7 -23 16 0 18 12 19 28 3 8 -8 12 -8 12
-1 0 10 -22 23 -40 23 -4 0 -10 -10 -13 -22z m14 -71 c-10 -9 -11 -8 -5 6 3
10 9 15 12 12 3 -3 0 -11 -7 -18z"/>
<path d="M5807 7846 c-4 -10 -1 -13 8 -9 8 3 12 9 9 14 -7 12 -11 11 -17 -5z"/>
<path d="M5934 7788 c-4 -13 -8 -32 -8 -42 -1 -11 -7 -21 -14 -24 -11 -3 -12
0 -3 16 6 10 7 22 4 26 -13 12 -19 5 -18 -21 0 -19 5 -28 17 -28 9 0 20 -4 24
-8 4 -4 3 -7 -3 -7 -6 0 -13 -7 -16 -14 -4 -11 -1 -13 10 -9 12 5 14 1 9 -15
-6 -19 -5 -20 18 -9 19 9 22 14 10 20 -20 11 -18 28 4 20 14 -5 15 -3 5 8 -17
18 -17 44 0 33 7 -5 1 2 -13 14 -17 16 -21 25 -12 29 14 5 17 33 3 33 -5 0
-13 -10 -17 -22z"/>
<path d="M5785 7790 c-3 -5 -1 -10 4 -10 6 0 11 5 11 10 0 6 -2 10 -4 10 -3 0
-8 -4 -11 -10z"/>
<path d="M5810 7774 c0 -8 5 -12 10 -9 6 4 8 11 5 16 -9 14 -15 11 -15 -7z"/>
<path d="M5862 7764 c-12 -13 -12 -20 1 -46 8 -16 17 -25 21 -20 3 6 2 13 -4
17 -5 3 -8 19 -5 36 6 33 5 34 -13 13z"/>
<path d="M5965 7760 c3 -5 10 -10 16 -10 5 0 9 5 9 10 0 6 -7 10 -16 10 -8 0
-12 -4 -9 -10z"/>
<path d="M5715 7750 c-3 -5 -1 -10 4 -10 6 0 11 5 11 10 0 6 -2 10 -4 10 -3 0
-8 -4 -11 -10z"/>
<path d="M5750 7699 c0 -5 5 -7 10 -4 6 3 10 8 10 11 0 2 -4 4 -10 4 -5 0 -10
-5 -10 -11z"/>
<path d="M5740 7670 c0 -3 8 -10 18 -16 15 -9 18 -8 18 6 0 12 -7 18 -18 17
-10 -1 -18 -4 -18 -7z"/>
<path d="M5836 7671 c-16 -6 -17 -9 -6 -16 17 -11 -23 -29 -63 -27 -23 0 -25
-2 -14 -13 8 -7 22 -13 33 -12 10 1 18 -3 17 -10 -2 -7 4 -10 12 -7 8 4 15 2
15 -4 0 -16 -30 -23 -36 -7 -3 7 -12 11 -19 9 -10 -4 -11 -12 -6 -27 5 -12 6
-28 4 -34 -3 -7 0 -13 6 -13 6 0 11 9 11 21 0 11 4 17 10 14 6 -4 17 -2 24 4
10 9 15 8 20 -4 3 -9 2 -13 -4 -10 -6 3 -15 3 -21 -1 -8 -5 -8 -9 1 -14 9 -6
6 -10 -9 -15 -11 -3 -21 -10 -21 -15 0 -5 8 -7 18 -3 14 5 13 3 -3 -10 -18
-15 -18 -16 -2 -17 9 0 17 -4 17 -10 0 -5 -3 -9 -7 -9 -22 4 -43 -2 -43 -12 0
-5 5 -7 10 -4 6 4 26 8 44 11 27 3 35 0 39 -16 5 -20 -9 -38 -20 -26 -4 3 -1
6 6 6 7 0 9 5 6 10 -10 16 -25 12 -25 -7 0 -13 -3 -14 -12 -5 -18 18 -48 15
-48 -6 0 -10 5 -23 11 -29 11 -11 2 -66 -10 -58 -4 2 -6 18 -3 35 3 19 0 30
-7 30 -7 0 -11 -10 -9 -22 2 -11 -3 -23 -9 -25 -16 -6 -17 11 -3 38 11 19 8
22 -35 22 -35 0 -38 -4 -19 -17 14 -10 21 -26 22 -48 0 -32 0 -32 -10 -8 -9
24 -10 24 -23 6 -8 -10 -12 -22 -10 -26 3 -4 -11 -10 -29 -12 -19 -2 -32 0
-30 4 9 14 -7 9 -37 -13 -16 -11 -29 -17 -29 -12 0 4 8 13 19 20 29 18 21 55
-14 65 -18 4 -33 3 -40 -3 -7 -7 -5 -10 5 -9 32 5 60 0 60 -11 0 -5 -4 -7 -10
-4 -6 3 -7 -1 -4 -9 3 -9 2 -16 -4 -16 -6 0 -12 4 -14 8 -1 5 -16 0 -33 -11
-16 -10 -22 -17 -13 -13 10 3 20 1 24 -5 6 -11 -14 -68 -25 -70 -24 -5 -59
-10 -73 -10 -10 0 -18 -5 -18 -11 0 -6 11 -8 23 -6 23 5 23 4 9 -26 -8 -17
-16 -32 -17 -34 -7 -9 -35 13 -35 27 1 14 2 14 14 -2 8 -11 17 -14 20 -8 9 15
-32 40 -56 33 -18 -4 -19 -7 -6 -16 18 -13 17 -55 -2 -66 -8 -5 -14 -32 -15
-73 -1 -35 -5 -70 -9 -76 -4 -6 -1 -11 7 -11 18 0 28 24 21 48 -5 14 -4 15 5
2 6 -8 8 -23 5 -32 -7 -23 12 -24 20 -2 4 9 9 14 12 11 3 -3 0 -15 -6 -27 -8
-15 -17 -19 -31 -15 -13 4 -19 2 -19 -8 0 -10 8 -13 25 -9 21 4 24 1 18 -14
-6 -17 -5 -17 10 -5 9 7 23 11 30 8 8 -3 14 1 14 7 0 8 -10 12 -24 10 -26 -3
-29 4 -9 31 13 18 15 18 38 3 18 -12 24 -24 23 -46 -1 -21 2 -29 11 -25 7 2
10 12 7 21 -4 14 -3 14 5 3 6 -8 22 -15 37 -17 22 -2 24 0 15 11 -7 8 -16 13
-20 10 -15 -9 -18 10 -4 23 12 10 14 10 14 -2 0 -8 9 -18 20 -21 12 -4 20 -15
20 -28 0 -12 3 -32 6 -43 l6 -21 23 21 c35 32 53 46 60 46 3 0 3 -6 -1 -12 -4
-7 3 -4 15 7 l23 20 -12 -26 c-13 -29 2 -75 21 -63 6 4 6 11 -1 19 -8 10 -9
19 -1 32 9 16 10 16 11 -4 0 -14 6 -23 16 -23 14 0 15 -2 3 -17 -12 -14 -12
-16 2 -11 9 3 22 2 30 -3 12 -7 12 -9 0 -9 -10 0 -11 -3 -2 -13 7 -10 7 -17 0
-24 -8 -8 -8 -13 0 -17 6 -4 11 0 11 8 0 9 5 16 10 16 6 0 10 10 10 23 0 17 2
19 10 7 5 -9 5 -19 -1 -26 -6 -7 -4 -16 6 -24 13 -11 14 -10 10 3 -4 8 -1 18
6 23 8 4 10 3 5 -5 -4 -6 -2 -19 5 -27 17 -21 19 -74 2 -74 -7 0 -13 5 -13 11
0 6 -9 1 -19 -12 -18 -22 -18 -26 -4 -41 22 -25 33 -22 33 8 0 19 4 25 15 20
8 -3 14 0 12 7 -1 7 6 12 15 12 10 0 23 6 30 14 11 12 10 13 -4 8 -17 -6 -18
7 -3 54 5 14 2 19 -14 19 -14 0 -19 -5 -16 -20 2 -11 0 -22 -6 -25 -5 -4 -9 1
-9 9 0 9 -1 19 -1 24 -1 4 8 12 21 19 19 9 26 8 43 -8 14 -13 24 -16 31 -9 12
12 36 13 36 2 0 -9 -17 -12 -57 -12 -26 0 -32 -27 -8 -36 10 -4 13 -13 10 -24
-6 -18 28 -60 47 -60 5 0 6 -6 3 -12 -4 -7 5 -1 19 15 14 15 34 27 45 27 24 0
36 16 20 26 -8 5 -9 3 -4 -6 5 -9 4 -11 -4 -6 -15 10 -3 29 15 22 9 -3 14 1
14 12 0 14 2 15 10 2 5 -9 5 -19 -1 -26 -7 -8 -4 -11 8 -10 19 1 33 14 33 31
0 6 -5 3 -10 -5 -6 -9 -10 -10 -10 -3 0 6 -3 19 -7 29 -6 16 -3 15 16 -3 13
-12 20 -26 17 -31 -3 -6 0 -13 6 -16 9 -4 10 -8 2 -11 -38 -18 -47 -32 -35
-51 12 -18 12 -18 7 1 -5 16 2 25 31 40 20 11 43 26 50 34 20 19 26 8 12 -22
-10 -21 -15 -24 -30 -16 -13 7 -19 6 -19 -1 0 -13 48 -32 61 -24 6 3 7 15 3
26 -5 16 -3 20 9 15 18 -7 37 11 30 29 -3 9 2 14 16 15 33 2 39 4 47 12 16 16
23 6 7 -12 -9 -11 -25 -18 -38 -15 -21 4 -24 -5 -16 -45 1 -3 8 4 16 15 8 10
15 15 15 10 0 -5 6 -4 13 2 8 7 18 7 27 2 12 -8 9 -10 -10 -10 -14 0 -20 -4
-15 -8 14 -10 19 -46 6 -37 -6 3 -11 13 -11 21 0 16 -16 19 -25 3 -4 -6 -14
-8 -22 -5 -11 4 -13 1 -8 -14 7 -21 -10 -28 -18 -7 -4 9 -6 9 -6 0 -1 -7 8
-17 19 -23 16 -9 20 -8 20 5 0 8 8 15 18 15 19 0 75 -34 68 -41 -3 -3 5 -5 17
-6 12 0 16 1 9 4 -10 4 -10 8 -1 19 13 16 69 19 69 3 0 -6 9 -8 22 -4 17 6 20
4 15 -9 -7 -19 9 -22 16 -3 4 7 8 3 12 -10 8 -26 25 -31 25 -8 0 8 -3 15 -7
15 -5 0 -13 10 -18 23 -8 17 -7 26 7 40 10 9 18 13 18 9 0 -4 -6 -14 -12 -20
-10 -10 -10 -15 2 -22 9 -6 17 -5 21 2 4 6 18 12 31 14 34 4 34 4 20 12 -9 7
-10 15 -2 33 10 22 10 23 6 2 -2 -13 0 -26 5 -29 5 -3 9 -19 9 -36 l0 -32 21
22 c24 26 43 20 33 -11 -6 -20 -6 -20 10 -4 10 9 21 15 26 12 4 -3 6 3 3 14
-3 14 2 20 22 25 15 4 30 4 33 1 3 -3 -4 -8 -17 -12 -17 -4 -19 -8 -9 -14 21
-14 28 -11 39 18 7 20 13 23 21 15 17 -17 31 -15 25 3 -4 8 -2 17 4 20 5 4 9
3 8 -2 -7 -40 26 -51 56 -19 19 20 25 23 34 12 6 -7 8 -16 4 -19 -3 -4 4 -7
17 -7 22 0 23 1 5 20 -17 19 -17 20 1 20 18 1 18 1 1 15 -11 7 -26 11 -35 8
-9 -4 -13 -2 -9 4 4 6 -50 48 -121 96 -70 47 -179 121 -242 166 -259 181 -317
220 -463 312 l-152 97 0 63 c0 44 -5 68 -15 77 -13 12 -13 13 3 8 19 -6 24 10
5 17 -10 4 -10 7 -1 14 7 5 14 22 15 39 2 37 9 49 18 34 5 -7 9 4 11 27 4 37
3 39 -20 35 -23 -5 -24 -5 -5 -20 18 -14 18 -14 -6 -8 -14 3 -28 6 -32 6 -5 0
-8 6 -8 14 0 9 -7 12 -20 9 -11 -3 -20 -9 -20 -14 0 -5 -5 -8 -11 -6 -6 1 -14
-4 -17 -12 -2 -8 0 -11 6 -7 11 7 25 -21 16 -35 -3 -5 -12 -9 -20 -9 -11 0
-13 6 -9 21 6 18 4 20 -14 14 -12 -4 -21 -2 -21 4 0 6 6 11 13 11 8 0 22 9 32
20 11 12 13 20 6 20 -7 0 -9 5 -6 10 7 11 7 11 -19 1z m68 -56 c3 -8 1 -15 -4
-15 -6 0 -10 7 -10 15 0 8 2 15 4 15 2 0 6 -7 10 -15z m-16 -100 c1 -13 -3
-27 -9 -30 -6 -5 -6 -12 3 -23 12 -15 11 -16 -5 -3 -11 8 -15 21 -12 32 4 11
2 19 -4 19 -10 0 -15 -17 -14 -48 1 -7 -4 -11 -10 -9 -21 7 -18 27 6 51 14 14
22 27 19 30 -3 3 1 6 9 6 8 0 16 -11 17 -25z m-88 -130 c11 -13 10 -14 -4 -9
-9 3 -16 10 -16 15 0 13 6 11 20 -6z m45 -24 c-3 -6 -11 -8 -17 -5 -6 4 -5 9
3 15 16 10 23 4 14 -10z m-35 -61 c0 -5 -4 -10 -10 -10 -5 0 -10 5 -10 10 0 6
5 10 10 10 6 0 10 -4 10 -10z m92 -22 c-7 -7 -12 -8 -12 -2 0 14 12 26 19 19
2 -3 -1 -11 -7 -17z m-22 -2 c0 -3 -4 -8 -10 -11 -5 -3 -10 -1 -10 4 0 6 5 11
10 11 6 0 10 -2 10 -4z m-230 -28 c0 -16 -3 -19 -11 -11 -6 6 -8 16 -5 22 11
17 16 13 16 -11z m-55 2 c3 -5 1 -10 -4 -10 -6 0 -11 5 -11 10 0 6 2 10 4 10
3 0 8 -4 11 -10z m-15 -33 c0 -4 -6 -2 -14 5 -8 7 -12 17 -9 22 5 8 23 -12 23
-27z m270 23 c0 -5 -2 -10 -4 -10 -3 0 -8 5 -11 10 -3 6 -1 10 4 10 6 0 11 -4
11 -10z m-54 -12 c4 -7 3 -8 -4 -4 -7 4 -12 2 -12 -5 0 -7 -3 -10 -6 -6 -6 5
3 27 11 27 2 0 7 -5 11 -12z m-246 -18 c-18 -12 -30 -13 -30 -2 0 4 10 9 22 9
18 2 20 0 8 -7z m-60 -34 c0 -3 -4 -8 -10 -11 -5 -3 -10 -1 -10 4 0 6 5 11 10
11 6 0 10 -2 10 -4z m390 -121 c0 -1 -11 -5 -25 -7 -20 -4 -23 -2 -14 8 8 10
39 10 39 -1z m-363 -27 c2 -17 0 -19 -7 -8 -5 8 -6 18 -4 22 8 12 10 10 11
-14z m-123 -13 c-29 -30 -40 -31 -49 -7 -5 13 -3 14 5 6 9 -9 17 -7 31 7 10
10 23 19 29 19 5 0 -2 -11 -16 -25z m48 -19 c5 4 4 -4 -3 -17 -7 -13 -14 -19
-16 -13 -2 7 -14 10 -26 8 l-22 -5 23 12 c12 7 22 17 23 23 0 6 3 6 6 -2 2 -6
9 -9 15 -6z m153 -6 c-3 -5 -1 -10 6 -10 7 0 10 -3 6 -6 -9 -9 -28 6 -22 17 4
5 8 9 11 9 3 0 2 -4 -1 -10z m285 -4 c0 -2 -7 -7 -16 -10 -8 -3 -12 -2 -9 4 6
10 25 14 25 6z m-426 -31 c-4 -10 0 -15 15 -15 15 0 21 -6 21 -22 l0 -22 -20
22 c-12 12 -26 22 -32 22 -7 0 -6 5 2 15 7 8 14 15 16 15 2 0 1 -7 -2 -15z
m71 -15 c-3 -5 -12 -10 -18 -10 -7 0 -6 4 3 10 19 12 23 12 15 0z m197 -30 c4
0 8 -5 8 -11 0 -6 -5 -7 -12 -2 -7 4 -22 6 -33 5 -18 -2 -18 -1 -3 8 10 6 15
18 12 28 -2 9 1 7 7 -5 7 -13 16 -23 21 -23z m-157 10 c-3 -5 -11 -10 -16 -10
-6 0 -7 5 -4 10 3 6 11 10 16 10 6 0 7 -4 4 -10z m199 -2 c-3 -4 -11 -5 -19
-1 -21 7 -19 12 4 10 11 0 18 -5 15 -9z m-124 -8 c0 -5 -5 -10 -11 -10 -5 0
-7 5 -4 10 3 6 8 10 11 10 2 0 4 -4 4 -10z m180 6 c0 -2 -7 -9 -15 -16 -13
-11 -14 -10 -9 4 5 14 24 23 24 12z m-210 -36 c0 -5 -5 -10 -11 -10 -5 0 -7 5
-4 10 3 6 8 10 11 10 2 0 4 -4 4 -10z m50 0 c0 -5 -4 -10 -10 -10 -5 0 -10 5
-10 10 0 6 5 10 10 10 6 0 10 -4 10 -10z m120 0 c0 -5 -5 -10 -11 -10 -5 0 -7
5 -4 10 3 6 8 10 11 10 2 0 4 -4 4 -10z m-3 -46 c-3 -3 -12 -4 -19 -1 -8 3 -5
6 6 6 11 1 17 -2 13 -5z m23 -30 c0 -2 -7 -4 -15 -4 -8 0 -15 4 -15 10 0 5 7
7 15 4 8 -4 15 -8 15 -10z m30 -4 c0 -5 -4 -10 -10 -10 -5 0 -10 5 -10 10 0 6
5 10 10 10 6 0 10 -4 10 -10z m104 -22 c-3 -4 -9 -8 -15 -8 -5 0 -9 4 -9 8 0
5 7 9 15 9 8 0 12 -4 9 -9z m266 -32 c0 -2 -8 -10 -17 -17 -16 -13 -17 -12 -4
4 13 16 21 21 21 13z m-173 -33 c-4 -3 0 -15 10 -25 9 -11 11 -18 5 -18 -7 0
-12 5 -12 10 0 6 -4 10 -10 10 -16 0 -12 -21 8 -37 14 -12 14 -14 1 -10 -8 3
-21 -4 -28 -14 -6 -11 -16 -17 -21 -14 -6 4 -8 11 -4 16 3 5 2 9 -3 8 -18 -3
-33 1 -33 10 0 5 9 7 20 4 24 -6 25 0 4 22 -9 9 -13 19 -9 23 3 4 12 -1 19
-10 10 -13 15 -15 24 -6 7 7 12 18 12 25 0 7 5 13 12 13 6 0 8 -3 5 -7z m588
-3 c3 -6 -1 -7 -9 -4 -18 7 -21 14 -7 14 6 0 13 -4 16 -10z m-201 -37 c-1 -16
-2 -32 -3 -36 -1 -11 -21 2 -21 14 0 6 5 7 10 4 6 -3 10 -2 10 4 0 5 -5 13
-11 17 -9 5 0 18 16 24 1 0 0 -12 -1 -27z m106 12 c-7 -9 -15 -13 -19 -10 -3
3 1 10 9 15 21 14 24 12 10 -5z m-49 -24 c-8 -5 -10 -14 -5 -22 6 -12 5 -12
-9 0 -12 9 -17 10 -17 2 0 -6 7 -14 15 -17 13 -5 13 -8 0 -21 -17 -17 -56 -14
-63 5 -3 9 5 11 30 7 30 -5 31 -4 15 9 -17 13 -17 15 5 30 12 9 27 16 33 16 5
0 4 -4 -4 -9z m39 -32 c0 -4 -7 -6 -15 -3 -8 4 -15 10 -15 15 0 4 7 6 15 3 8
-4 15 -10 15 -15z m280 2 c0 -6 -10 -8 -21 -6 -33 6 -36 15 -6 15 15 0 27 -4
27 -9z m110 0 c0 -12 -20 -25 -27 -18 -7 7 6 27 18 27 5 0 9 -4 9 -9z m-300
-11 c0 -5 -7 -10 -16 -10 -8 0 -12 5 -9 10 3 6 10 10 16 10 5 0 9 -4 9 -10z
m-770 -16 c0 -8 -4 -12 -10 -9 -5 3 -10 10 -10 16 0 5 5 9 10 9 6 0 10 -7 10
-16z m671 -7 c-1 -12 -15 -9 -19 4 -3 6 1 10 8 8 6 -3 11 -8 11 -12z m214 3
c3 -5 1 -10 -4 -10 -6 0 -11 5 -11 10 0 6 2 10 4 10 3 0 8 -4 11 -10z m-325
-21 c0 -5 -4 -9 -10 -9 -5 0 -10 7 -10 16 0 8 5 12 10 9 6 -3 10 -10 10 -16z"/>
<path d="M5797 7663 c-4 -3 -7 -11 -7 -17 0 -6 5 -5 12 2 6 6 9 14 7 17 -3 3
-9 2 -12 -2z"/>
<path d="M5735 7559 c-4 -6 -3 -15 3 -21 6 -6 11 -4 15 6 7 18 -9 31 -18 15z"/>
<path d="M5741 7501 c-8 -5 -9 -11 -3 -15 5 -3 12 1 16 9 6 17 6 18 -13 6z"/>
<path d="M5705 7450 c-3 -5 -1 -10 4 -10 6 0 11 5 11 10 0 6 -2 10 -4 10 -3 0
-8 -4 -11 -10z"/>
<path d="M5734 7419 c-3 -6 0 -18 9 -26 13 -13 15 -12 15 11 0 27 -12 34 -24
15z"/>
<path d="M5688 7403 c7 -3 16 -2 19 1 4 3 -2 6 -13 5 -11 0 -14 -3 -6 -6z"/>
<path d="M5577 7350 c10 -11 19 -20 21 -20 1 0 -2 9 -8 20 -6 11 -15 20 -20
20 -6 0 -2 -9 7 -20z"/>
<path d="M5635 7360 c3 -5 2 -10 -3 -10 -6 0 -13 -7 -16 -16 -3 -8 -2 -13 3
-10 5 3 12 -1 15 -10 5 -12 2 -15 -9 -10 -9 3 -13 2 -10 -4 8 -13 16 -12 35 0
13 9 12 12 -4 25 -17 13 -17 15 -3 21 21 8 22 24 1 24 -8 0 -12 -4 -9 -10z"/>
<path d="M5667 7346 c-4 -10 -1 -13 8 -9 8 3 12 9 9 14 -7 12 -11 11 -17 -5z"/>
<path d="M5390 7254 c0 -8 5 -12 10 -9 6 4 8 11 5 16 -9 14 -15 11 -15 -7z"/>
<path d="M5458 7253 c6 -2 10 -8 8 -12 -3 -4 -1 -13 4 -21 7 -12 12 -12 22 -2
9 9 9 12 0 12 -7 0 -12 7 -12 15 0 8 -8 15 -17 14 -11 0 -13 -3 -5 -6z"/>
<path d="M5356 7214 c-8 -21 -8 -34 2 -34 4 0 9 11 10 25 2 28 -3 32 -12 9z"/>
<path d="M5400 7214 l-25 -15 25 7 c28 7 35 12 29 18 -2 2 -15 -2 -29 -10z"/>
<path d="M5290 7164 c0 -8 5 -12 10 -9 6 4 8 11 5 16 -9 14 -15 11 -15 -7z"/>
<path d="M5312 7114 c-14 -15 -7 -17 22 -5 15 6 16 9 5 13 -8 3 -20 -1 -27 -8z"/>
<path d="M5280 7084 c0 -8 5 -12 10 -9 6 4 8 11 5 16 -9 14 -15 11 -15 -7z"/>
<path d="M5308 7070 c-10 -11 -13 -22 -8 -25 14 -9 27 1 33 25 6 25 -2 24 -25
0z"/>
<path d="M5270 7047 c0 -14 37 -57 44 -50 11 11 7 23 -9 23 -7 0 -19 8 -24 18
-6 9 -11 13 -11 9z"/>
<path d="M5230 7020 c0 -5 5 -10 10 -10 6 0 10 5 10 10 0 6 -4 10 -10 10 -5 0
-10 -4 -10 -10z"/>
<path d="M5266 7007 c3 -10 9 -15 12 -12 3 3 0 11 -7 18 -10 9 -11 8 -5 -6z"/>
<path d="M11008 6956 c-16 -12 -28 -28 -28 -35 0 -8 10 -3 24 12 17 19 30 24
47 20 25 -6 25 -5 -1 14 -12 9 -21 6 -42 -11z"/>
<path d="M5270 6950 c20 -13 33 -13 25 0 -3 6 -14 10 -23 10 -15 0 -15 -2 -2
-10z"/>
<path d="M10931 6931 c-8 -5 -21 -7 -29 -4 -12 5 -12 3 -1 -15 8 -13 17 -18
22 -13 5 5 16 7 23 4 8 -3 14 0 14 6 0 6 -5 11 -11 11 -5 0 -7 5 -4 10 8 12 4
12 -14 1z"/>
<path d="M11010 6909 c0 -5 5 -7 10 -4 6 3 10 8 10 11 0 2 -4 4 -10 4 -5 0
-10 -5 -10 -11z"/>
<path d="M10780 6885 c0 -8 4 -15 10 -15 5 0 7 7 4 15 -4 8 -8 15 -10 15 -2 0
-4 -7 -4 -15z"/>
<path d="M10715 6880 c-3 -5 -1 -10 4 -10 6 0 11 5 11 10 0 6 -2 10 -4 10 -3
0 -8 -4 -11 -10z"/>
<path d="M10743 6864 c0 -8 4 -14 9 -14 5 0 6 -5 2 -12 -4 -7 -3 -8 4 -4 16
10 15 33 -1 39 -8 3 -14 -1 -14 -9z"/>
<path d="M10600 6860 c-9 -6 -10 -10 -3 -10 6 0 15 5 18 10 8 12 4 12 -15 0z"/>
<path d="M10960 6860 c0 -5 5 -10 11 -10 5 0 7 5 4 10 -3 6 -8 10 -11 10 -2 0
-4 -4 -4 -10z"/>
<path d="M10815 6850 c3 -5 11 -10 16 -10 6 0 7 5 4 10 -3 6 -11 10 -16 10 -6
0 -7 -4 -4 -10z"/>
<path d="M5373 6835 c0 -8 4 -12 9 -9 5 3 6 10 3 15 -9 13 -12 11 -12 -6z"/>
<path d="M5500 6842 c0 -5 7 -13 16 -16 10 -4 14 -1 12 6 -5 15 -28 23 -28 10z"/>
<path d="M5543 6844 c3 -4 1 -16 -5 -28 -6 -11 -7 -17 -2 -13 4 4 14 -3 20
-15 l13 -23 -2 23 c-1 12 -5 22 -10 22 -5 0 -5 9 -2 20 4 13 2 20 -6 20 -7 0
-9 -3 -6 -6z"/>
<path d="M11378 6843 c7 -3 16 -2 19 1 4 3 -2 6 -13 5 -11 0 -14 -3 -6 -6z"/>
<path d="M10527 6826 c-4 -10 -1 -13 9 -9 7 3 14 9 14 14 0 14 -17 10 -23 -5z"/>
<path d="M10650 6830 c0 -5 5 -10 11 -10 5 0 7 5 4 10 -3 6 -8 10 -11 10 -2 0
-4 -4 -4 -10z"/>
<path d="M7568 6819 c-10 -6 -10 -11 0 -21 9 -9 12 -9 12 1 0 7 5 9 10 6 8 -5
8 -11 0 -20 -7 -8 -7 -15 -1 -19 5 -3 12 0 14 6 4 10 6 10 6 0 1 -7 -6 -15
-14 -18 -11 -5 -12 -11 -4 -25 11 -22 31 -16 23 6 -5 12 -1 12 19 2 21 -10 23
-15 14 -27 -7 -9 -4 -9 9 3 11 9 23 15 26 12 3 -3 4 5 3 17 -4 34 -4 35 -19
15 -15 -20 -50 -12 -42 9 7 20 -39 63 -56 53z m103 -82 c-10 -9 -11 -8 -5 6 3
10 9 15 12 12 3 -3 0 -11 -7 -18z"/>
<path d="M5619 6813 c-6 -59 -7 -57 7 -38 7 10 11 22 8 26 -3 5 -1 9 5 9 6 0
13 -10 16 -23 6 -22 35 -34 35 -15 0 4 -4 8 -10 8 -5 0 -10 9 -10 20 0 15 -7
20 -25 20 -14 0 -25 -3 -26 -7z"/>
<path d="M10425 6800 c3 -5 8 -10 11 -10 2 0 4 5 4 10 0 6 -5 10 -11 10 -5 0
-7 -4 -4 -10z"/>
<path d="M10480 6800 c0 -5 5 -10 11 -10 5 0 7 5 4 10 -3 6 -8 10 -11 10 -2 0
-4 -4 -4 -10z"/>
<path d="M5726 6761 c-4 -6 -2 -11 4 -11 6 0 8 -4 5 -10 -3 -5 -1 -10 4 -10
13 0 14 10 2 29 -6 9 -11 10 -15 2z"/>
<path d="M10480 6760 c0 -5 5 -10 10 -10 6 0 10 5 10 10 0 6 -4 10 -10 10 -5
0 -10 -4 -10 -10z"/>
<path d="M5635 6740 c3 -5 10 -10 16 -10 5 0 9 5 9 10 0 6 -7 10 -16 10 -8 0
-12 -4 -9 -10z"/>
<path d="M10235 6740 c-4 -6 -3 -16 3 -22 13 -13 23 4 13 21 -7 10 -10 10 -16
1z"/>
<path d="M5710 6716 c0 -2 7 -7 16 -10 8 -3 12 -2 9 4 -6 10 -25 14 -25 6z"/>
<path d="M5794 6711 c4 -6 2 -11 -3 -11 -6 0 -11 -5 -11 -11 0 -8 4 -8 13 0
10 8 17 7 25 -1 6 -6 14 -9 17 -6 3 3 -6 13 -21 23 -15 9 -23 12 -20 6z"/>
<path d="M10195 6680 c3 -5 8 -10 11 -10 2 0 4 5 4 10 0 6 -5 10 -11 10 -5 0
-7 -4 -4 -10z"/>
<path d="M5780 6661 c0 -6 4 -13 10 -16 6 -3 7 1 4 9 -7 18 -14 21 -14 7z"/>
<path d="M10001 6632 c0 -7 -5 -11 -10 -8 -5 3 -12 -1 -15 -10 -3 -8 -2 -12 4
-9 6 3 10 1 10 -6 0 -10 3 -10 11 -2 6 6 9 19 6 29 -3 11 -5 13 -6 6z"/>
<path d="M5906 6616 c3 -9 11 -16 16 -16 13 0 5 23 -10 28 -7 2 -10 -2 -6 -12z"/>
<path d="M6045 6608 c-49 -28 -62 -69 -22 -67 21 0 21 1 2 9 -18 7 -19 8 -2
15 9 4 17 13 17 21 0 13 13 19 33 15 5 -1 6 3 2 9 -7 12 -5 12 -30 -2z"/>
<path d="M6147 6591 c-6 -23 14 -34 34 -19 11 8 10 9 -4 4 -15 -5 -17 -2 -12
14 4 11 2 20 -3 20 -5 0 -12 -9 -15 -19z"/>
<path d="M5946 6585 c-3 -9 0 -15 9 -15 9 0 12 6 9 15 -4 8 -7 15 -9 15 -2 0
-5 -7 -9 -15z"/>
<path d="M6850 6585 c0 -8 7 -15 15 -15 8 0 15 4 15 9 0 5 -7 11 -15 15 -9 3
-15 0 -15 -9z"/>
<path d="M6908 6570 c-9 -17 -13 -30 -8 -30 6 0 10 5 10 11 0 5 4 7 10 4 6 -4
7 1 3 11 -4 12 -3 15 5 10 7 -4 12 -1 12 8 0 25 -13 19 -32 -14z"/>
<path d="M5895 6580 c3 -5 10 -10 16 -10 5 0 9 5 9 10 0 6 -7 10 -16 10 -8 0
-12 -4 -9 -10z"/>
<path d="M6590 6574 c0 -8 5 -12 10 -9 6 3 10 10 10 16 0 5 -4 9 -10 9 -5 0
-10 -7 -10 -16z"/>
<path d="M6056 6565 c4 -8 10 -15 15 -15 4 0 6 7 3 15 -4 8 -10 15 -15 15 -4
0 -6 -7 -3 -15z"/>
<path d="M6220 6571 c0 -5 7 -12 16 -15 14 -5 15 -4 4 9 -14 17 -20 19 -20 6z"/>
<path d="M6308 6563 c7 -3 16 -2 19 1 4 3 -2 6 -13 5 -11 0 -14 -3 -6 -6z"/>
<path d="M6340 6550 c0 -11 4 -20 9 -20 5 0 7 9 4 20 -3 11 -7 20 -9 20 -2 0
-4 -9 -4 -20z"/>
<path d="M9976 6557 c3 -10 9 -15 12 -12 3 3 0 11 -7 18 -10 9 -11 8 -5 -6z"/>
<path d="M6455 6540 c3 -5 8 -10 11 -10 2 0 4 5 4 10 0 6 -5 10 -11 10 -5 0
-7 -4 -4 -10z"/>
<path d="M6595 6540 c-3 -5 -1 -10 4 -10 6 0 11 5 11 10 0 6 -2 10 -4 10 -3 0
-8 -4 -11 -10z"/>
<path d="M6735 6540 c3 -5 8 -10 11 -10 2 0 4 5 4 10 0 6 -5 10 -11 10 -5 0
-7 -4 -4 -10z"/>
<path d="M5855 6520 c3 -5 8 -10 11 -10 2 0 4 5 4 10 0 6 -5 10 -11 10 -5 0
-7 -4 -4 -10z"/>
<path d="M5980 6521 c0 -6 4 -13 10 -16 6 -3 7 1 4 9 -7 18 -14 21 -14 7z"/>
<path d="M5620 6418 c-41 -153 -175 -486 -220 -546 -21 -28 -36 -53 -33 -56 4
-3 26 -6 51 -6 33 0 48 5 63 23 l18 22 1 -41 c0 -33 -4 -43 -25 -54 -14 -8
-28 -24 -31 -36 -3 -12 -19 -28 -35 -34 -25 -11 -29 -18 -29 -54 0 -40 -1 -42
-49 -59 -27 -9 -64 -17 -82 -17 -19 0 -72 -14 -119 -30 -46 -16 -86 -27 -88
-25 -2 2 -21 54 -43 116 -21 61 -41 114 -43 117 -14 13 -27 -21 -57 -145 -18
-76 -34 -140 -36 -142 -6 -9 -175 -49 -187 -45 -16 6 -43 96 -87 284 -17 74
-38 146 -47 159 l-15 25 -8 -22 c-5 -13 -13 -115 -18 -229 -6 -113 -12 -207
-14 -209 -2 -2 -27 74 -56 169 -77 250 -85 272 -108 275 -29 4 -33 -21 -43
-253 -5 -110 -9 -201 -10 -202 0 -1 -6 -1 -12 1 -44 14 -68 15 -66 5 2 -9
-139 -89 -197 -112 -22 -9 7 -19 86 -30 71 -10 83 -15 84 -32 1 -11 5 -30 9
-43 5 -16 -1 -42 -23 -88 -33 -70 -40 -114 -18 -114 7 0 34 7 60 16 93 32 141
-5 67 -52 -56 -36 -85 -62 -78 -69 7 -8 49 13 112 55 84 57 84 57 236 -86 435
-410 684 -609 996 -796 603 -361 1051 -523 1669 -605 203 -26 819 -26 1015 1
406 55 769 149 1080 280 213 90 511 250 750 404 316 203 816 634 974 837 120
156 366 545 366 580 0 7 -31 31 -69 54 -81 48 -93 69 -124 212 -12 54 -25 99
-30 99 -10 0 -77 -154 -158 -369 -5 -13 -12 -22 -14 -19 -8 7 -52 244 -60 319
-8 74 -20 102 -34 81 -13 -22 -82 -380 -89 -472 -5 -65 -11 -85 -23 -88 -13
-2 -18 16 -27 105 -7 59 -15 157 -19 216 l-6 108 -23 -22 c-17 -15 -24 -34
-24 -58 0 -21 -8 -43 -20 -56 -14 -15 -26 -52 -37 -109 -13 -72 -20 -90 -38
-98 -29 -13 -32 -64 -4 -73 15 -5 18 -12 13 -28 -4 -12 -12 -25 -19 -29 -7 -4
-32 -24 -56 -44 l-44 -37 -5 94 c-3 52 -9 100 -13 106 -5 8 0 19 13 30 31 27
25 39 -29 59 -28 10 -48 21 -46 25 3 4 26 10 52 14 53 8 83 21 83 35 0 16 -60
48 -102 55 l-39 7 32 16 c49 25 49 42 0 42 -37 0 -56 13 -31 22 16 5 14 35 -5
111 -10 37 -23 67 -30 67 -7 0 -17 -26 -24 -60 -9 -43 -19 -65 -38 -79 -14
-12 -23 -27 -20 -35 3 -8 -1 -17 -9 -20 -19 -7 -18 -26 2 -26 11 0 14 -6 8
-22 -8 -28 -22 -38 -51 -38 -29 0 -38 -17 -21 -37 12 -15 11 -15 -9 -2 -32 19
-38 6 -17 -40 17 -34 22 -39 44 -34 l25 6 -20 -23 c-11 -12 -39 -31 -62 -41
-74 -32 -70 -102 5 -93 20 3 -13 -8 -74 -25 -61 -16 -121 -34 -133 -40 -12 -7
-101 -34 -199 -60 -97 -27 -242 -74 -322 -104 -80 -30 -179 -65 -220 -77 -41
-13 -81 -27 -88 -33 -17 -14 -21 -7 -28 49 -7 57 -23 104 -36 104 -11 0 -17
-17 -38 -94 l-15 -59 -117 -32 c-199 -54 -348 -143 -511 -307 -54 -54 -100
-98 -102 -98 -2 0 -60 37 -128 83 -130 88 -230 135 -307 144 -38 4 -54 0 -105
-28 -33 -18 -77 -41 -98 -51 l-39 -19 -36 28 c-20 15 -98 76 -172 136 -273
218 -566 399 -672 413 -34 5 -82 -3 -204 -34 -87 -22 -171 -43 -186 -46 l-28
-6 0 64 0 64 -35 4 c-19 2 -39 2 -44 -1 -5 -4 -12 -36 -15 -73 l-8 -67 -36 -6
c-20 -4 -62 -15 -93 -26 -31 -10 -65 -19 -77 -19 -16 0 -19 -5 -14 -22 3 -13
14 -31 25 -40 29 -26 12 -22 -28 5 -19 13 -32 27 -27 32 4 5 1 5 -6 1 -11 -7
-144 73 -157 95 -4 5 23 9 63 9 99 0 173 16 200 44 22 22 23 24 7 37 -9 8 -24
22 -33 32 -9 9 -22 17 -28 17 -26 0 -124 102 -134 139 -6 22 -22 46 -41 60
-42 31 -26 41 48 29 58 -10 64 -9 108 16 48 28 54 49 17 54 -11 2 -26 10 -32
18 -7 8 -18 14 -25 14 -7 0 -18 14 -24 30 -5 17 -16 30 -22 30 -7 0 -5 6 5 13
30 22 11 54 -50 83 -30 14 -54 30 -54 35 0 5 20 18 45 30 54 25 57 45 10 64
-19 8 -39 24 -45 35 -19 36 -160 393 -160 406 0 32 -20 20 -30 -18z m245 -636
c-3 -3 -11 0 -18 7 -9 10 -8 11 6 5 10 -3 15 -9 12 -12z"/>
</g>
</svg>
